<?xml version="1.0" encoding="UTF-8" standalone="no"?>
<!-- Created with Inkscape (http://www.inkscape.org/) -->

<svg
   version="1.1"
   id="svg545"
   width="944.88159"
   height="118.352"
   viewBox="0 0 944.88158 118.352"
   sodipodi:docname="Logotype RGB.ai"
   xmlns:inkscape="http://www.inkscape.org/namespaces/inkscape"
   xmlns:sodipodi="http://sodipodi.sourceforge.net/DTD/sodipodi-0.dtd"
   xmlns="http://www.w3.org/2000/svg"
   xmlns:svg="http://www.w3.org/2000/svg">
  <defs
     id="defs549" />
  <sodipodi:namedview
     id="namedview547"
     pagecolor="#ffffff"
     bordercolor="#000000"
     borderopacity="0.25"
     inkscape:showpageshadow="2"
     inkscape:pageopacity="0.0"
     inkscape:pagecheckerboard="0"
     inkscape:deskcolor="#d1d1d1"
     showgrid="false" />
  <g
     id="g553"
     inkscape:groupmode="layer"
     inkscape:label="Page 1"
     transform="matrix(1.3333333,0,0,-1.3333333,-88.818664,248.15253)">
    <g
       id="g555"
       transform="translate(112.516,125.0344)">
      <path
         d="M 0,0 13.015,33.396 H 41.472 L 34.964,16.698 H 70.077 L 87.373,61.08 H -35.532 l 13.45,-27.684 h 17.281 l -22.457,-13.24 -18.644,-47.84 H 52.855 L 63.645,0 Z"
         style="fill:#163e6c;fill-opacity:1;fill-rule:nonzero;stroke:none"
         id="path557" />
    </g>
    <g
       id="g559"
       transform="translate(633.9364,186.114)">
      <path
         d="M 0,0 -15.389,-39.489 H -43.846 L -28.456,0 h -35.113 l -34.592,-88.763 h 35.112 l 7.459,19.139 34.466,15.418 -13.468,-34.557 H 0.521 L 35.113,0 Z"
         style="fill:#163e6c;fill-opacity:1;fill-rule:nonzero;stroke:none"
         id="path561" />
    </g>
    <g
       id="g563"
       transform="translate(505.9471,137.466)">
      <path
         d="M 0,0 H -20.581 L -3.256,20.964 H 8.171 Z m -229.155,48.648 -47.016,-39.935 15.564,39.935 h -35.114 l -34.592,-88.763 h 35.113 l 46.875,39.572 -15.422,-39.572 h 35.113 l 29.335,75.273 9.2,-14.194 h 22.13 l -50.478,-61.079 h 40.435 l 50.478,61.079 h 11.426 l -23.803,-61.079 h 35.113 l 29.501,75.699 9.477,-14.62 h 22.13 l -50.478,-61.079 h 40.435 l 24.004,29.046 18.651,-17.359 -4.555,-11.687 h 35.112 l 34.593,88.763 z"
         style="fill:#163e6c;fill-opacity:1;fill-rule:nonzero;stroke:none"
         id="path565" />
    </g>
    <g
       id="g567"
       transform="translate(764.4872,158.4304)">
      <path
         d="M 0,0 10.788,27.684 H -87.895 L -98.683,0 h 47.618 l -22.457,-13.24 -7.856,-20.156 h -12.287 l -10.788,-27.684 h 61.033 l 10.789,27.684 H -46.265 L -33.25,0 Z"
         style="fill:#163e6c;fill-opacity:1;fill-rule:nonzero;stroke:none"
         id="path569" />
    </g>
  </g>
</svg>
